<svg
  strokeMiterlimit="10"
  style="fill-rule:nonzero;clip-rule:evenodd;stroke-linecap:round;stroke-linejoin:round;display:inline"
  version="1.1"
  viewBox="0 6 200 17"
  xmlSpace="preserve"
>
  <defs>
    <clipPath id="TextBounds">
      <rect height="30" width="201.456" x="0" y="0" />
    </clipPath>
  </defs>
  <g id="Layer-1">
    <g fill="var(--color-text-basic)" opacity="1" stroke="none">
      <path
        clipPath="url(#TextBounds)"
        d="M1.716 23L1.716 20.504L6.348 20.504C7.084 20.504 7.616 20.412 7.944 20.228C8.272 20.044 8.436 19.768 8.436 19.4L8.436 6.104L11.628 6.104L11.628 19.4C11.628 19.928 11.528 20.412 11.328 20.852C11.128 21.292 10.816 21.672 10.392 21.992C9.968 22.312 9.42 22.56 8.748 22.736C8.076 22.912 7.276 23 6.348 23L1.716 23Z"
        fillRule="evenodd"
      />
      <path
        clipPath="url(#TextBounds)"
        d="M14.892 23L14.892 20.504L29.58 20.504C30.988 20.504 31.692 19.984 31.692 18.944L31.692 16.808C31.692 15.768 30.988 15.248 29.58 15.248L19.644 15.248C18.684 15.248 17.868 15.148 17.196 14.948C16.524 14.748 15.976 14.468 15.552 14.108C15.128 13.748 14.82 13.32 14.628 12.824C14.436 12.328 14.34 11.776 14.34 11.168L14.34 10.184C14.34 9.576 14.436 9.024 14.628 8.528C14.82 8.032 15.128 7.604 15.552 7.244C15.976 6.884 16.524 6.604 17.196 6.404C17.868 6.204 18.684 6.104 19.644 6.104L33.948 6.104L33.948 8.6L19.644 8.6C18.236 8.6 17.532 9.12 17.532 10.16L17.532 11.192C17.532 12.232 18.236 12.752 19.644 12.752L29.58 12.752C30.54 12.752 31.356 12.852 32.028 13.052C32.7 13.252 33.248 13.532 33.672 13.892C34.096 14.252 34.404 14.68 34.596 15.176C34.788 15.672 34.884 16.224 34.884 16.832L34.884 18.92C34.884 19.528 34.788 20.08 34.596 20.576C34.404 21.072 34.096 21.5 33.672 21.86C33.248 22.22 32.7 22.5 32.028 22.7C31.356 22.9 30.54 23 29.58 23L14.892 23Z"
        fillRule="evenodd"
      />
      <path
        clipPath="url(#TextBounds)"
        d="M72.276 23L72.276 11.168L63.684 23L61.068 23L52.452 11.192L52.452 23L49.5 23L49.5 6.104L52.476 6.104L62.508 19.904L72.492 6.104L75.228 6.104L75.228 23L72.276 23Z"
        fillRule="evenodd"
      />
      <path
        clipPath="url(#TextBounds)"
        d="M97.908 23L89.196 9.392L80.34 23L76.788 23L88.02 6.104L90.348 6.104L101.508 23L97.908 23Z"
        fillRule="evenodd"
      />
      <path
        clipPath="url(#TextBounds)"
        d="M108.252 23C107.292 23 106.476 22.9 105.804 22.7C105.132 22.5 104.584 22.22 104.16 21.86C103.736 21.5 103.428 21.072 103.236 20.576C103.044 20.08 102.948 19.528 102.948 18.92L102.948 10.184C102.948 9.576 103.044 9.024 103.236 8.528C103.428 8.032 103.736 7.604 104.16 7.244C104.584 6.884 105.132 6.604 105.804 6.404C106.476 6.204 107.292 6.104 108.252 6.104L121.86 6.104L121.86 8.6L108.252 8.6C106.844 8.6 106.14 9.12 106.14 10.16L106.14 18.944C106.14 19.984 106.844 20.504 108.252 20.504L121.86 20.504L121.86 23L108.252 23Z"
        fillRule="evenodd"
      />
      <path
        clipPath="url(#TextBounds)"
        d="M141.564 23L141.564 15.32L127.74 15.32L127.74 23L124.548 23L124.548 6.104L127.74 6.104L127.74 12.824L141.564 12.824L141.564 6.104L144.756 6.104L144.756 23L141.564 23Z"
        fillRule="evenodd"
      />
      <path
        clipPath="url(#TextBounds)"
        d="M147.996 23L147.996 6.104L151.188 6.104L151.188 23L147.996 23Z"
        fillRule="evenodd"
      />
      <path
        clipPath="url(#TextBounds)"
        d="M175.236 23L157.212 9.848L157.212 23L154.428 23L154.428 6.104L157.188 6.104L174.012 18.656L174.012 6.104L176.796 6.104L176.796 23L175.236 23Z"
        fillRule="evenodd"
      />
      <path
        clipPath="url(#TextBounds)"
        d="M179.556 20.6L198.732 20.6L198.732 23.024L179.556 23.024L179.556 20.6ZM198.732 13.352L179.556 13.328L179.556 15.752L198.732 15.752L198.732 13.352ZM179.556 6.104L198.756 6.128L198.756 8.552L179.556 8.552L179.556 6.104Z"
        fillRule="evenodd"
      />
    </g>
  </g>
</svg>
